0
SECTION
2
HEADER
9
$INSUNITS
70
4
0
ENDSEC
0
SECTION
2
ENTITIES
0
CIRCLE
8
CUT
10
0.000000
20
0.000000
30
0.0
40
88.900000
0
CIRCLE
8
CUT
10
0.000000
20
0.000000
30
0.0
40
2.540000
0
LINE
8
CUT
10
84.404200
20
-1.143000
30
0.0
11
86.944200
21
-1.143000
31
0.0
0
LINE
8
CUT
10
86.944200
20
-1.143000
30
0.0
11
86.944200
21
1.143000
31
0.0
0
LINE
8
CUT
10
86.944200
20
1.143000
30
0.0
11
84.404200
21
1.143000
31
0.0
0
LINE
8
CUT
10
84.404200
20
1.143000
30
0.0
11
84.404200
21
-1.143000
31
0.0
0
LINE
8
CUT
10
84.372944
20
2.565492
30
0.0
11
86.910493
21
2.677060
31
0.0
0
LINE
8
CUT
10
86.910493
20
2.677060
30
0.0
11
86.810082
21
4.960853
31
0.0
0
LINE
8
CUT
10
86.810082
20
4.960853
30
0.0
11
84.272533
21
4.849286
31
0.0
0
LINE
8
CUT
10
84.272533
20
4.849286
30
0.0
11
84.372944
21
2.565492
31
0.0
0
LINE
8
CUT
10
84.178826
20
6.269032
30
0.0
11
86.709024
21
6.491952
31
0.0
0
LINE
8
CUT
10
86.709024
20
6.491952
30
0.0
11
86.508397
21
8.769131
31
0.0
0
LINE
8
CUT
10
86.508397
20
8.769131
30
0.0
11
83.978198
21
8.546211
31
0.0
0
LINE
8
CUT
10
83.978198
20
8.546211
30
0.0
11
84.178826
21
6.269032
31
0.0
0
LINE
8
CUT
10
83.822219
20
9.960471
30
0.0
11
86.340185
21
10.294312
31
0.0
0
LINE
8
CUT
10
86.340185
20
10.294312
30
0.0
11
86.039727
21
12.560481
31
0.0
0
LINE
8
CUT
10
86.039727
20
12.560481
30
0.0
11
83.521762
21
12.226640
31
0.0
0
LINE
8
CUT
10
83.521762
20
12.226640
30
0.0
11
83.822219
21
9.960471
31
0.0
0
LINE
8
CUT
10
83.303814
20
13.632684
30
0.0
11
85.804685
21
14.076803
31
0.0
0
LINE
8
CUT
10
85.804685
20
14.076803
30
0.0
11
85.404978
21
16.327587
31
0.0
0
LINE
8
CUT
10
85.404978
20
16.327587
30
0.0
11
82.904107
21
15.883468
31
0.0
0
LINE
8
CUT
10
82.904107
20
15.883468
30
0.0
11
83.303814
21
13.632684
31
0.0
0
LINE
8
CUT
10
82.624609
20
17.278581
30
0.0
11
85.103559
21
17.832121
31
0.0
0
LINE
8
CUT
10
85.103559
20
17.832121
30
0.0
11
84.605374
21
20.063176
31
0.0
0
LINE
8
CUT
10
84.605374
20
20.063176
30
0.0
11
82.126424
21
19.509637
31
0.0
0
LINE
8
CUT
10
82.126424
20
19.509637
30
0.0
11
82.624609
21
17.278581
31
0.0
0
LINE
8
CUT
10
81.785917
20
20.891127
30
0.0
11
84.238161
21
21.553018
31
0.0
0
LINE
8
CUT
10
84.238161
20
21.553018
30
0.0
11
83.642459
21
23.760037
31
0.0
0
LINE
8
CUT
10
83.642459
20
23.760037
30
0.0
11
81.190215
21
23.098146
31
0.0
0
LINE
8
CUT
10
81.190215
20
23.098146
30
0.0
11
81.785917
21
20.891127
31
0.0
0
LINE
8
CUT
10
80.789356
20
24.463347
30
0.0
11
83.210160
21
25.232312
31
0.0
0
LINE
8
CUT
10
83.210160
20
25.232312
30
0.0
11
82.518092
21
27.411036
31
0.0
0
LINE
8
CUT
10
82.518092
20
27.411036
30
0.0
11
80.097288
21
26.642071
31
0.0
0
LINE
8
CUT
10
80.097288
20
26.642071
30
0.0
11
80.789356
21
24.463347
31
0.0
0
LINE
8
CUT
10
79.636850
20
27.988346
30
0.0
11
82.021542
21
28.862901
31
0.0
0
LINE
8
CUT
10
82.021542
20
28.862901
30
0.0
11
81.234442
21
31.009123
31
0.0
0
LINE
8
CUT
10
81.234442
20
31.009123
30
0.0
11
78.849751
21
30.134569
31
0.0
0
LINE
8
CUT
10
78.849751
20
30.134569
30
0.0
11
79.636850
21
27.988346
31
0.0
0
LINE
8
CUT
10
78.330624
20
31.459320
30
0.0
11
80.674599
21
32.437777
31
0.0
0
LINE
8
CUT
10
80.674599
20
32.437777
30
0.0
11
79.793989
21
34.547355
31
0.0
0
LINE
8
CUT
10
79.793989
20
34.547355
30
0.0
11
77.450013
21
33.568899
31
0.0
0
LINE
8
CUT
10
77.450013
20
33.568899
30
0.0
11
78.330624
21
31.459320
31
0.0
0
LINE
8
CUT
10
76.873198
20
34.869570
30
0.0
11
79.171933
21
35.950039
31
0.0
0
LINE
8
CUT
10
79.171933
20
35.950039
30
0.0
11
78.199511
21
38.018901
31
0.0
0
LINE
8
CUT
10
78.199511
20
38.018901
30
0.0
11
75.900775
21
36.938432
31
0.0
0
LINE
8
CUT
10
75.900775
20
36.938432
30
0.0
11
76.873198
21
34.869570
31
0.0
0
LINE
8
CUT
10
75.267386
20
38.212511
30
0.0
11
77.516444
21
39.392908
31
0.0
0
LINE
8
CUT
10
77.516444
20
39.392908
30
0.0
11
76.454087
21
41.417061
31
0.0
0
LINE
8
CUT
10
76.454087
20
41.417061
30
0.0
11
74.205029
21
40.236664
31
0.0
0
LINE
8
CUT
10
74.205029
20
40.236664
30
0.0
11
75.267386
21
38.212511
31
0.0
0
LINE
8
CUT
10
73.516288
20
41.481693
30
0.0
11
75.711328
21
42.759738
31
0.0
0
LINE
8
CUT
10
75.711328
20
42.759738
30
0.0
11
74.561087
21
44.735274
31
0.0
0
LINE
8
CUT
10
74.561087
20
44.735274
30
0.0
11
72.366047
21
43.457228
31
0.0
0
LINE
8
CUT
10
72.366047
20
43.457228
30
0.0
11
73.516288
21
41.481693
31
0.0
0
LINE
8
CUT
10
71.623284
20
44.670803
30
0.0
11
73.760068
21
46.044031
31
0.0
0
LINE
8
CUT
10
73.760068
20
46.044031
30
0.0
11
72.524163
21
47.967136
31
0.0
0
LINE
8
CUT
10
72.524163
20
47.967136
30
0.0
11
70.387379
21
46.593908
31
0.0
0
LINE
8
CUT
10
70.387379
20
46.593908
30
0.0
11
71.623284
21
44.670803
31
0.0
0
LINE
8
CUT
10
69.592028
20
47.773687
30
0.0
11
71.666431
21
49.239446
31
0.0
0
LINE
8
CUT
10
71.666431
20
49.239446
30
0.0
11
70.347248
21
51.106409
31
0.0
0
LINE
8
CUT
10
70.347248
20
51.106409
30
0.0
11
68.272845
21
49.640650
31
0.0
0
LINE
8
CUT
10
68.272845
20
49.640650
30
0.0
11
69.592028
21
47.773687
31
0.0
0
LINE
8
CUT
10
67.426440
20
50.784354
30
0.0
11
69.434459
21
52.339815
31
0.0
0
LINE
8
CUT
10
69.434459
20
52.339815
30
0.0
11
68.034544
21
54.147033
31
0.0
0
LINE
8
CUT
10
68.034544
20
54.147033
30
0.0
11
66.026525
21
52.591572
31
0.0
0
LINE
8
CUT
10
66.026525
20
52.591572
30
0.0
11
67.426440
21
50.784354
31
0.0
0
LINE
8
CUT
10
65.130701
20
53.696994
30
0.0
11
67.068460
21
55.339155
31
0.0
0
LINE
8
CUT
10
67.068460
20
55.339155
30
0.0
11
65.590516
21
57.083138
31
0.0
0
LINE
8
CUT
10
65.590516
20
57.083138
30
0.0
11
63.652757
21
55.440978
31
0.0
0
LINE
8
CUT
10
63.652757
20
55.440978
30
0.0
11
65.130701
21
53.696994
31
0.0
0
LINE
8
CUT
10
62.709242
20
56.505985
30
0.0
11
64.573000
21
58.231675
31
0.0
0
LINE
8
CUT
10
64.573000
20
58.231675
30
0.0
11
63.019880
21
59.909057
31
0.0
0
LINE
8
CUT
10
63.019880
20
59.909057
30
0.0
11
61.156121
21
58.183367
31
0.0
0
LINE
8
CUT
10
61.156121
20
58.183367
30
0.0
11
62.709242
21
56.505985
31
0.0
0
LINE
8
CUT
10
60.166738
20
59.205904
30
0.0
11
61.952898
21
61.011792
31
0.0
0
LINE
8
CUT
10
61.952898
20
61.011792
30
0.0
11
60.327598
21
62.619336
31
0.0
0
LINE
8
CUT
10
60.327598
20
62.619336
30
0.0
11
58.541438
21
60.813448
31
0.0
0
LINE
8
CUT
10
58.541438
20
60.813448
30
0.0
11
60.166738
21
59.205904
31
0.0
0
LINE
8
CUT
10
57.508096
20
61.791539
30
0.0
11
59.213209
21
63.674141
31
0.0
0
LINE
8
CUT
10
59.213209
20
63.674141
30
0.0
11
57.518868
21
65.208743
31
0.0
0
LINE
8
CUT
10
57.518868
20
65.208743
30
0.0
11
55.813755
21
63.326142
31
0.0
0
LINE
8
CUT
10
55.813755
20
63.326142
30
0.0
11
57.508096
21
61.791539
31
0.0
0
LINE
8
CUT
10
54.738447
20
64.257901
30
0.0
11
56.359224
21
66.213581
31
0.0
0
LINE
8
CUT
10
56.359224
20
66.213581
30
0.0
11
54.599111
21
67.672279
31
0.0
0
LINE
8
CUT
10
54.599111
20
67.672279
30
0.0
11
52.978335
21
65.716599
31
0.0
0
LINE
8
CUT
10
52.978335
20
65.716599
30
0.0
11
54.738447
21
64.257901
31
0.0
0
LINE
8
CUT
10
51.863139
20
66.600227
30
0.0
11
53.396449
21
68.625211
31
0.0
0
LINE
8
CUT
10
53.396449
20
68.625211
30
0.0
11
51.573964
21
70.005190
31
0.0
0
LINE
8
CUT
10
51.573964
20
70.005190
30
0.0
11
50.040654
21
67.980206
31
0.0
0
LINE
8
CUT
10
50.040654
20
67.980206
30
0.0
11
51.863139
21
66.600227
31
0.0
0
LINE
8
CUT
10
48.887721
20
68.813997
30
0.0
11
50.330606
21
70.904376
31
0.0
0
LINE
8
CUT
10
50.330606
20
70.904376
30
0.0
11
48.449264
21
72.202972
31
0.0
0
LINE
8
CUT
10
48.449264
20
72.202972
30
0.0
11
47.006380
21
70.112593
31
0.0
0
LINE
8
CUT
10
47.006380
20
70.112593
30
0.0
11
48.887721
21
68.813997
31
0.0
0
LINE
8
CUT
10
45.817937
20
70.894937
30
0.0
11
47.167610
21
73.046676
31
0.0
0
LINE
8
CUT
10
47.167610
20
73.046676
30
0.0
11
45.231045
21
74.261383
31
0.0
0
LINE
8
CUT
10
45.231045
20
74.261383
30
0.0
11
43.881371
21
72.109643
31
0.0
0
LINE
8
CUT
10
43.881371
20
72.109643
30
0.0
11
45.817937
21
70.894937
31
0.0
0
LINE
8
CUT
10
42.659711
20
72.839031
30
0.0
11
43.913569
21
75.047977
31
0.0
0
LINE
8
CUT
10
43.913569
20
75.047977
30
0.0
11
41.925517
21
76.176449
31
0.0
0
LINE
8
CUT
10
41.925517
20
76.176449
30
0.0
11
40.671660
21
73.967503
31
0.0
0
LINE
8
CUT
10
40.671660
20
73.967503
30
0.0
11
42.659711
21
72.839031
31
0.0
0
LINE
8
CUT
10
39.419141
20
74.642526
30
0.0
11
40.574762
21
76.904415
31
0.0
0
LINE
8
CUT
10
40.574762
20
76.904415
30
0.0
11
38.539062
21
77.944474
31
0.0
0
LINE
8
CUT
10
38.539062
20
77.944474
30
0.0
11
37.383441
21
75.682586
31
0.0
0
LINE
8
CUT
10
37.383441
20
75.682586
30
0.0
11
39.419141
21
74.642526
31
0.0
0
LINE
8
CUT
10
36.102481
20
76.301942
30
0.0
11
37.157635
21
78.612407
31
0.0
0
LINE
8
CUT
10
37.157635
20
78.612407
30
0.0
11
35.078217
21
79.562045
31
0.0
0
LINE
8
CUT
10
35.078217
20
79.562045
30
0.0
11
34.023062
21
77.251580
31
0.0
0
LINE
8
CUT
10
34.023062
20
77.251580
30
0.0
11
36.102481
21
76.301942
31
0.0
0
LINE
8
CUT
10
32.716134
20
77.814073
30
0.0
11
33.668784
21
80.168655
31
0.0
0
LINE
8
CUT
10
33.668784
20
80.168655
30
0.0
11
31.549660
21
81.026041
31
0.0
0
LINE
8
CUT
10
31.549660
20
81.026041
30
0.0
11
30.597010
21
78.671459
31
0.0
0
LINE
8
CUT
10
30.597010
20
78.671459
30
0.0
11
32.716134
21
77.814073
31
0.0
0
LINE
8
CUT
10
29.266636
20
79.176003
30
0.0
11
30.114944
21
81.570157
31
0.0
0
LINE
8
CUT
10
30.114944
20
81.570157
30
0.0
11
27.960205
21
82.333634
31
0.0
0
LINE
8
CUT
10
27.960205
20
82.333634
30
0.0
11
27.111897
21
79.939480
31
0.0
0
LINE
8
CUT
10
27.111897
20
79.939480
30
0.0
11
29.266636
21
79.176003
31
0.0
0
LINE
8
CUT
10
25.760645
20
80.385102
30
0.0
11
26.502973
21
82.814206
31
0.0
0
LINE
8
CUT
10
26.502973
20
82.814206
30
0.0
11
24.316779
21
83.482301
31
0.0
0
LINE
8
CUT
10
24.316779
20
83.482301
30
0.0
11
23.574451
21
81.053197
31
0.0
0
LINE
8
CUT
10
23.574451
20
81.053197
30
0.0
11
25.760645
21
80.385102
31
0.0
0
LINE
8
CUT
10
22.204930
20
81.439036
30
0.0
11
22.839844
21
83.898402
31
0.0
0
LINE
8
CUT
10
22.839844
20
83.898402
30
0.0
11
20.626415
21
84.469825
31
0.0
0
LINE
8
CUT
10
20.626415
20
84.469825
30
0.0
11
19.991500
21
82.010459
31
0.0
0
LINE
8
CUT
10
19.991500
20
82.010459
30
0.0
11
22.204930
21
81.439036
31
0.0
0
LINE
8
CUT
10
18.606353
20
82.335770
30
0.0
11
19.132629
21
84.820651
31
0.0
0
LINE
8
CUT
10
19.132629
20
84.820651
30
0.0
11
16.896236
21
85.294300
31
0.0
0
LINE
8
CUT
10
16.896236
20
85.294300
30
0.0
11
16.369960
21
82.809419
31
0.0
0
LINE
8
CUT
10
16.369960
20
82.809419
30
0.0
11
18.606353
21
82.335770
31
0.0
0
LINE
8
CUT
10
14.971860
20
83.073575
30
0.0
11
15.388482
21
85.579174
31
0.0
0
LINE
8
CUT
10
15.388482
20
85.579174
30
0.0
11
13.133443
21
85.954133
31
0.0
0
LINE
8
CUT
10
13.133443
20
85.954133
30
0.0
11
12.716821
21
83.448534
31
0.0
0
LINE
8
CUT
10
12.716821
20
83.448534
30
0.0
11
14.971860
21
83.073575
31
0.0
0
LINE
8
CUT
10
11.308468
20
83.651025
30
0.0
11
11.614631
21
86.172505
31
0.0
0
LINE
8
CUT
10
11.614631
20
86.172505
30
0.0
11
9.345299
21
86.448052
31
0.0
0
LINE
8
CUT
10
9.345299
20
86.448052
30
0.0
11
9.039136
21
83.926572
31
0.0
0
LINE
8
CUT
10
9.039136
20
83.926572
30
0.0
11
11.308468
21
83.651025
31
0.0
0
LINE
8
CUT
10
7.623248
20
84.067006
30
0.0
11
7.818362
21
86.599501
31
0.0
0
LINE
8
CUT
10
7.818362
20
86.599501
30
0.0
11
5.539116
21
86.775103
31
0.0
0
LINE
8
CUT
10
5.539116
20
86.775103
30
0.0
11
5.344002
21
84.242608
31
0.0
0
LINE
8
CUT
10
5.344002
20
84.242608
30
0.0
11
7.623248
21
84.067006
31
0.0
0
LINE
8
CUT
10
3.923313
20
84.320715
30
0.0
11
4.007000
21
86.859336
31
0.0
0
LINE
8
CUT
10
4.007000
20
86.859336
30
0.0
11
1.722241
21
86.934655
31
0.0
0
LINE
8
CUT
10
1.722241
20
86.934655
30
0.0
11
1.638554
21
84.396034
31
0.0
0
LINE
8
CUT
10
1.638554
20
84.396034
30
0.0
11
3.923313
21
84.320715
31
0.0
0
LINE
8
CUT
10
0.215804
20
84.411663
30
0.0
11
0.187904
21
86.951510
31
0.0
0
LINE
8
CUT
10
0.187904
20
86.951510
30
0.0
11
-2.097958
21
86.926400
31
0.0
0
LINE
8
CUT
10
-2.097958
20
86.926400
30
0.0
11
-2.070058
21
84.386553
31
0.0
0
LINE
8
CUT
10
-2.070058
20
84.386553
30
0.0
11
0.215804
21
84.411663
31
0.0
0
LINE
8
CUT
10
-3.492121
20
84.339673
30
0.0
11
-3.631555
21
86.875843
31
0.0
0
LINE
8
CUT
10
-3.631555
20
86.875843
30
0.0
11
-5.914108
21
86.750353
31
0.0
0
LINE
8
CUT
10
-5.914108
20
86.750353
30
0.0
11
-5.774674
21
84.214183
31
0.0
0
LINE
8
CUT
10
-5.774674
20
84.214183
30
0.0
11
-3.492121
21
84.339673
31
0.0
0
LINE
8
CUT
10
-7.193305
20
84.104886
30
0.0
11
-7.444004
21
86.632483
31
0.0
0
LINE
8
CUT
10
-7.444004
20
86.632483
30
0.0
11
-9.718842
21
86.406854
31
0.0
0
LINE
8
CUT
10
-9.718842
20
86.406854
30
0.0
11
-9.468143
21
83.879257
31
0.0
0
LINE
8
CUT
10
-9.468143
20
83.879257
30
0.0
11
-7.193305
21
84.104886
31
0.0
0
LINE
8
CUT
10
-10.880604
20
83.707753
30
0.0
11
-11.242084
21
86.221899
31
0.0
0
LINE
8
CUT
10
-11.242084
20
86.221899
30
0.0
11
-13.504816
21
85.896568
31
0.0
0
LINE
8
CUT
10
-13.504816
20
85.896568
30
0.0
11
-13.143336
21
83.382421
31
0.0
0
LINE
8
CUT
10
-13.143336
20
83.382421
30
0.0
11
-10.880604
21
83.707753
31
0.0
0
LINE
8
CUT
10
-14.546901
20
83.149041
30
0.0
11
-15.018464
21
85.644884
31
0.0
0
LINE
8
CUT
10
-15.018464
20
85.644884
30
0.0
11
-17.264722
21
85.220477
31
0.0
0
LINE
8
CUT
10
-17.264722
20
85.220477
30
0.0
11
-16.793159
21
82.724635
31
0.0
0
LINE
8
CUT
10
-16.793159
20
82.724635
30
0.0
11
-14.546901
21
83.149041
31
0.0
0
LINE
8
CUT
10
-18.185118
20
82.429830
30
0.0
11
-18.765854
21
84.902551
31
0.0
0
LINE
8
CUT
10
-18.765854
20
84.902551
30
0.0
11
-20.991302
21
84.379889
31
0.0
0
LINE
8
CUT
10
-20.991302
20
84.379889
30
0.0
11
-20.410567
21
81.907168
31
0.0
0
LINE
8
CUT
10
-20.410567
20
81.907168
30
0.0
11
-18.185118
21
82.429830
31
0.0
0
LINE
8
CUT
10
-21.788233
20
81.551507
30
0.0
11
-22.477021
21
83.996333
31
0.0
0
LINE
8
CUT
10
-22.477021
20
83.996333
30
0.0
11
-24.677364
21
83.376424
31
0.0
0
LINE
8
CUT
10
-24.677364
20
83.376424
30
0.0
11
-23.988576
21
80.931599
31
0.0
0
LINE
8
CUT
10
-23.988576
20
80.931599
30
0.0
11
-21.788233
21
81.551507
31
0.0
0
LINE
8
CUT
10
-25.349291
20
80.515768
30
0.0
11
-26.144801
21
82.927979
31
0.0
0
LINE
8
CUT
10
-26.144801
20
82.927979
30
0.0
11
-28.315791
21
82.212021
31
0.0
0
LINE
8
CUT
10
-28.315791
20
82.212021
30
0.0
11
-27.520282
21
79.799809
31
0.0
0
LINE
8
CUT
10
-27.520282
20
79.799809
30
0.0
11
-25.349291
21
80.515768
31
0.0
0
LINE
8
CUT
10
-28.861418
20
79.324611
30
0.0
11
-29.762115
21
81.699553
31
0.0
0
LINE
8
CUT
10
-29.762115
20
81.699553
30
0.0
11
-31.899562
21
80.888926
31
0.0
0
LINE
8
CUT
10
-31.899562
20
80.888926
30
0.0
11
-30.998865
21
78.513985
31
0.0
0
LINE
8
CUT
10
-30.998865
20
78.513985
30
0.0
11
-28.861418
21
79.324611
31
0.0
0
LINE
8
CUT
10
-32.317835
20
77.980337
30
0.0
11
-33.321980
21
80.313424
31
0.0
0
LINE
8
CUT
10
-33.321980
20
80.313424
30
0.0
11
-35.421758
21
79.409694
31
0.0
0
LINE
8
CUT
10
-35.421758
20
79.409694
30
0.0
11
-34.417613
21
77.076607
31
0.0
0
LINE
8
CUT
10
-34.417613
20
77.076607
30
0.0
11
-32.317835
21
77.980337
31
0.0
0
LINE
8
CUT
10
-35.711870
20
76.485540
30
0.0
11
-36.817524
21
78.772269
31
0.0
0
LINE
8
CUT
10
-36.817524
20
78.772269
30
0.0
11
-38.875580
21
77.777180
31
0.0
0
LINE
8
CUT
10
-38.875580
20
77.777180
30
0.0
11
-37.769925
21
75.490451
31
0.0
0
LINE
8
CUT
10
-37.769925
20
75.490451
30
0.0
11
-35.711870
21
76.485540
31
0.0
0
LINE
8
CUT
10
-39.036971
20
74.843105
30
0.0
11
-40.242001
21
77.079062
31
0.0
0
LINE
8
CUT
10
-40.242001
20
77.079062
30
0.0
11
-42.254362
21
75.994534
31
0.0
0
LINE
8
CUT
10
-42.254362
20
75.994534
30
0.0
11
-41.049332
21
73.758578
31
0.0
0
LINE
8
CUT
10
-41.049332
20
73.758578
30
0.0
11
-39.036971
21
74.843105
31
0.0
0
LINE
8
CUT
10
-42.286720
20
73.056203
30
0.0
11
-43.588800
21
75.237071
31
0.0
0
LINE
8
CUT
10
-43.588800
20
75.237071
30
0.0
11
-45.551582
21
74.065200
31
0.0
0
LINE
8
CUT
10
-45.551582
20
74.065200
30
0.0
11
-44.249502
21
71.884331
31
0.0
0
LINE
8
CUT
10
-44.249502
20
71.884331
30
0.0
11
-42.286720
21
73.056203
31
0.0
0
LINE
8
CUT
10
-45.454844
20
71.128282
30
0.0
11
-46.851461
21
73.249853
31
0.0
0
LINE
8
CUT
10
-46.851461
20
73.249853
30
0.0
11
-48.760874
21
71.992899
31
0.0
0
LINE
8
CUT
10
-48.760874
20
71.992899
30
0.0
11
-47.364258
21
69.871328
31
0.0
0
LINE
8
CUT
10
-47.364258
20
69.871328
30
0.0
11
-45.454844
21
71.128282
31
0.0
0
LINE
8
CUT
10
-48.535229
20
69.063065
30
0.0
11
-50.023685
21
71.121243
31
0.0
0
LINE
8
CUT
10
-50.023685
20
71.121243
30
0.0
11
-51.876046
21
69.781633
31
0.0
0
LINE
8
CUT
10
-51.876046
20
69.781633
30
0.0
11
-50.387589
21
67.723454
31
0.0
0
LINE
8
CUT
10
-50.387589
20
67.723454
30
0.0
11
-48.535229
21
69.063065
31
0.0
0
LINE
8
CUT
10
-51.521927
20
66.864538
30
0.0
11
-53.099351
21
68.855350
31
0.0
0
LINE
8
CUT
10
-53.099351
20
68.855350
30
0.0
11
-54.891082
21
67.435669
31
0.0
0
LINE
8
CUT
10
-54.891082
20
67.435669
30
0.0
11
-53.313659
21
65.444856
31
0.0
0
LINE
8
CUT
10
-53.313659
20
65.444856
30
0.0
11
-51.521927
21
66.864538
31
0.0
0
LINE
8
CUT
10
-54.409175
20
64.536944
30
0.0
11
-56.072521
21
66.456548
31
0.0
0
LINE
8
CUT
10
-56.072521
20
66.456548
30
0.0
11
-57.800164
21
64.959536
31
0.0
0
LINE
8
CUT
10
-57.800164
20
64.959536
30
0.0
11
-56.136818
21
63.039932
31
0.0
0
LINE
8
CUT
10
-56.136818
20
63.039932
30
0.0
11
-54.409175
21
64.536944
31
0.0
0
LINE
8
CUT
10
-57.191398
20
62.084777
30
0.0
11
-58.937456
21
63.929467
31
0.0
0
LINE
8
CUT
10
-58.937456
20
63.929467
30
0.0
11
-60.597677
21
62.358014
31
0.0
0
LINE
8
CUT
10
-60.597677
20
62.358014
30
0.0
11
-58.851619
21
60.513324
31
0.0
0
LINE
8
CUT
10
-58.851619
20
60.513324
30
0.0
11
-57.191398
21
62.084777
31
0.0
0
LINE
8
CUT
10
-59.863226
20
59.512769
30
0.0
11
-61.688625
21
61.278984
31
0.0
0
LINE
8
CUT
10
-61.688625
20
61.278984
30
0.0
11
-63.278219
21
59.636125
31
0.0
0
LINE
8
CUT
10
-63.278219
20
59.636125
30
0.0
11
-61.452820
21
57.869909
31
0.0
0
LINE
8
CUT
10
-61.452820
20
57.869909
30
0.0
11
-59.863226
21
59.512769
31
0.0
0
LINE
8
CUT
10
-62.419502
20
56.825885
30
0.0
11
-64.320719
21
58.510217
31
0.0
0
LINE
8
CUT
10
-64.320719
20
58.510217
30
0.0
11
-65.836617
21
56.799121
31
0.0
0
LINE
8
CUT
10
-65.836617
20
56.799121
30
0.0
11
-63.935400
21
55.114790
31
0.0
0
LINE
8
CUT
10
-63.935400
20
55.114790
30
0.0
11
-62.419502
21
56.825885
31
0.0
0
LINE
8
CUT
10
-64.855291
20
54.029313
30
0.0
11
-66.828657
21
55.628509
31
0.0
0
LINE
8
CUT
10
-66.828657
20
55.628509
30
0.0
11
-68.267933
21
53.852480
31
0.0
0
LINE
8
CUT
10
-68.267933
20
53.852480
30
0.0
11
-66.294568
21
52.253284
31
0.0
0
LINE
8
CUT
10
-66.294568
20
52.253284
30
0.0
11
-64.855291
21
54.029313
31
0.0
0
LINE
8
CUT
10
-67.165893
20
51.128449
30
0.0
11
-69.207597
21
52.639423
31
0.0
0
LINE
8
CUT
10
-69.207597
20
52.639423
30
0.0
11
-70.567474
21
50.801889
31
0.0
0
LINE
8
CUT
10
-70.567474
20
50.801889
30
0.0
11
-68.525770
21
49.290915
31
0.0
0
LINE
8
CUT
10
-68.525770
20
49.290915
30
0.0
11
-67.165893
21
51.128449
31
0.0
0
LINE
8
CUT
10
-69.346846
20
48.128893
30
0.0
11
-71.452948
21
49.548729
31
0.0
0
LINE
8
CUT
10
-71.452948
20
49.548729
30
0.0
11
-72.730800
21
47.653237
31
0.0
0
LINE
8
CUT
10
-72.730800
20
47.653237
30
0.0
11
-70.624698
21
46.233401
31
0.0
0
LINE
8
CUT
10
-70.624698
20
46.233401
30
0.0
11
-69.346846
21
48.128893
31
0.0
0
LINE
8
CUT
10
-71.393941
20
45.036436
30
0.0
11
-73.560376
21
46.362393
31
0.0
0
LINE
8
CUT
10
-73.560376
20
46.362393
30
0.0
11
-74.753737
21
44.412602
31
0.0
0
LINE
8
CUT
10
-74.753737
20
44.412602
30
0.0
11
-72.587302
21
43.086645
31
0.0
0
LINE
8
CUT
10
-72.587302
20
43.086645
30
0.0
11
-71.393941
21
45.036436
31
0.0
0
LINE
8
CUT
10
-73.303227
20
41.857047
30
0.0
11
-75.525812
21
43.086565
31
0.0
0
LINE
8
CUT
10
-75.525812
20
43.086565
30
0.0
11
-76.632378
21
41.086238
31
0.0
0
LINE
8
CUT
10
-76.632378
20
41.086238
30
0.0
11
-74.409793
21
39.856720
31
0.0
0
LINE
8
CUT
10
-74.409793
20
39.856720
30
0.0
11
-73.303227
21
41.857047
31
0.0
0
LINE
8
CUT
10
-75.071018
20
38.596862
30
0.0
11
-77.345464
21
39.727568
31
0.0
0
LINE
8
CUT
10
-77.345464
20
39.727568
30
0.0
11
-78.363099
21
37.680566
31
0.0
0
LINE
8
CUT
10
-78.363099
20
37.680566
30
0.0
11
-76.088653
21
36.549860
31
0.0
0
LINE
8
CUT
10
-76.088653
20
36.549860
30
0.0
11
-75.071018
21
38.596862
31
0.0
0
LINE
8
CUT
10
-76.693901
20
35.262174
30
0.0
11
-79.015817
21
36.291886
31
0.0
0
LINE
8
CUT
10
-79.015817
20
36.291886
30
0.0
11
-79.942558
21
34.202161
31
0.0
0
LINE
8
CUT
10
-79.942558
20
34.202161
30
0.0
11
-77.620642
21
33.172450
31
0.0
0
LINE
8
CUT
10
-77.620642
20
33.172450
30
0.0
11
-76.693901
21
35.262174
31
0.0
0
LINE
8
CUT
10
-78.168745
20
31.859422
30
0.0
11
-80.533649
21
32.786151
31
0.0
0
LINE
8
CUT
10
-80.533649
20
32.786151
30
0.0
11
-81.367706
21
30.657737
31
0.0
0
LINE
8
CUT
10
-81.367706
20
30.657737
30
0.0
11
-79.002801
21
29.731008
31
0.0
0
LINE
8
CUT
10
-79.002801
20
29.731008
30
0.0
11
-78.168745
21
31.859422
31
0.0
0
LINE
8
CUT
10
-79.492702
20
28.395172
30
0.0
11
-81.896030
21
29.217130
31
0.0
0
LINE
8
CUT
10
-81.896030
20
29.217130
30
0.0
11
-82.635792
21
27.054135
31
0.0
0
LINE
8
CUT
10
-82.635792
20
27.054135
30
0.0
11
-80.232464
21
26.232177
31
0.0
0
LINE
8
CUT
10
-80.232464
20
26.232177
30
0.0
11
-79.492702
21
28.395172
31
0.0
0
LINE
8
CUT
10
-80.663217
20
24.876112
30
0.0
11
-83.100329
21
25.591712
31
0.0
0
LINE
8
CUT
10
-83.100329
20
25.591712
30
0.0
11
-83.744369
21
23.398311
31
0.0
0
LINE
8
CUT
10
-83.744369
20
23.398311
30
0.0
11
-81.307257
21
22.682711
31
0.0
0
LINE
8
CUT
10
-81.307257
20
22.682711
30
0.0
11
-80.663217
21
24.876112
31
0.0
0
LINE
8
CUT
10
-81.678030
20
21.309034
30
0.0
11
-84.144222
21
21.916895
31
0.0
0
LINE
8
CUT
10
-84.144222
20
21.916895
30
0.0
11
-84.691297
21
19.697322
31
0.0
0
LINE
8
CUT
10
-84.691297
20
19.697322
30
0.0
11
-82.225105
21
19.089461
31
0.0
0
LINE
8
CUT
10
-82.225105
20
19.089461
30
0.0
11
-81.678030
21
21.309034
31
0.0
0
LINE
8
CUT
10
-82.535182
20
17.700824
30
0.0
11
-85.025694
21
18.199773
31
0.0
0
LINE
8
CUT
10
-85.025694
20
18.199773
30
0.0
11
-85.474748
21
15.958313
31
0.0
0
LINE
8
CUT
10
-85.474748
20
15.958313
30
0.0
11
-82.984237
21
15.459363
31
0.0
0
LINE
8
CUT
10
-82.984237
20
15.459363
30
0.0
11
-82.535182
21
17.700824
31
0.0
0
LINE
8
CUT
10
-83.233019
20
14.058446
30
0.0
11
-85.743044
21
14.447521
31
0.0
0
LINE
8
CUT
10
-85.743044
20
14.447521
30
0.0
11
-86.093210
21
12.188499
31
0.0
0
LINE
8
CUT
10
-86.093210
20
12.188499
30
0.0
11
-83.583186
21
11.799425
31
0.0
0
LINE
8
CUT
10
-83.583186
20
11.799425
30
0.0
11
-83.233019
21
14.058446
31
0.0
0
LINE
8
CUT
10
-83.770195
20
10.388932
30
0.0
11
-86.294886
21
10.667380
31
0.0
0
LINE
8
CUT
10
-86.294886
20
10.667380
30
0.0
11
-86.545489
21
8.395158
31
0.0
0
LINE
8
CUT
10
-86.545489
20
8.395158
30
0.0
11
-84.020798
21
8.116710
31
0.0
0
LINE
8
CUT
10
-84.020798
20
8.116710
30
0.0
11
-83.770195
21
10.388932
31
0.0
0
LINE
8
CUT
10
-84.145671
20
6.699365
30
0.0
11
-86.680156
21
6.866649
31
0.0
0
LINE
8
CUT
10
-86.680156
20
6.866649
30
0.0
11
-86.830712
21
4.585612
31
0.0
0
LINE
8
CUT
10
-86.830712
20
4.585612
30
0.0
11
-84.296227
21
4.418328
31
0.0
0
LINE
8
CUT
10
-84.296227
20
4.418328
30
0.0
11
-84.145671
21
6.699365
31
0.0
0
LINE
8
CUT
10
-84.358723
20
2.996866
30
0.0
11
-86.898111
21
3.052663
31
0.0
0
LINE
8
CUT
10
-86.898111
20
3.052663
30
0.0
11
-86.948328
21
0.767215
31
0.0
0
LINE
8
CUT
10
-86.948328
20
0.767215
30
0.0
11
-84.408941
21
0.711418
31
0.0
0
LINE
8
CUT
10
-84.408941
20
0.711418
30
0.0
11
-84.358723
21
2.996866
31
0.0
0
LINE
8
CUT
10
-84.408941
20
-0.711418
30
0.0
11
-86.948328
21
-0.767215
31
0.0
0
LINE
8
CUT
10
-86.948328
20
-0.767215
30
0.0
11
-86.898111
21
-3.052663
31
0.0
0
LINE
8
CUT
10
-86.898111
20
-3.052663
30
0.0
11
-84.358723
21
-2.996866
31
0.0
0
LINE
8
CUT
10
-84.358723
20
-2.996866
30
0.0
11
-84.408941
21
-0.711418
31
0.0
0
LINE
8
CUT
10
-84.296227
20
-4.418328
30
0.0
11
-86.830712
21
-4.585612
31
0.0
0
LINE
8
CUT
10
-86.830712
20
-4.585612
30
0.0
11
-86.680156
21
-6.866649
31
0.0
0
LINE
8
CUT
10
-86.680156
20
-6.866649
30
0.0
11
-84.145671
21
-6.699365
31
0.0
0
LINE
8
CUT
10
-84.145671
20
-6.699365
30
0.0
11
-84.296227
21
-4.418328
31
0.0
0
LINE
8
CUT
10
-84.020798
20
-8.116710
30
0.0
11
-86.545489
21
-8.395158
31
0.0
0
LINE
8
CUT
10
-86.545489
20
-8.395158
30
0.0
11
-86.294886
21
-10.667380
31
0.0
0
LINE
8
CUT
10
-86.294886
20
-10.667380
30
0.0
11
-83.770195
21
-10.388932
31
0.0
0
LINE
8
CUT
10
-83.770195
20
-10.388932
30
0.0
11
-84.020798
21
-8.116710
31
0.0
0
LINE
8
CUT
10
-83.583186
20
-11.799425
30
0.0
11
-86.093210
21
-12.188499
31
0.0
0
LINE
8
CUT
10
-86.093210
20
-12.188499
30
0.0
11
-85.743044
21
-14.447521
31
0.0
0
LINE
8
CUT
10
-85.743044
20
-14.447521
30
0.0
11
-83.233019
21
-14.058446
31
0.0
0
LINE
8
CUT
10
-83.233019
20
-14.058446
30
0.0
11
-83.583186
21
-11.799425
31
0.0
0
LINE
8
CUT
10
-82.984237
20
-15.459363
30
0.0
11
-85.474748
21
-15.958313
31
0.0
0
LINE
8
CUT
10
-85.474748
20
-15.958313
30
0.0
11
-85.025694
21
-18.199773
31
0.0
0
LINE
8
CUT
10
-85.025694
20
-18.199773
30
0.0
11
-82.535182
21
-17.700824
31
0.0
0
LINE
8
CUT
10
-82.535182
20
-17.700824
30
0.0
11
-82.984237
21
-15.459363
31
0.0
0
LINE
8
CUT
10
-82.225105
20
-19.089461
30
0.0
11
-84.691297
21
-19.697322
31
0.0
0
LINE
8
CUT
10
-84.691297
20
-19.697322
30
0.0
11
-84.144222
21
-21.916895
31
0.0
0
LINE
8
CUT
10
-84.144222
20
-21.916895
30
0.0
11
-81.678030
21
-21.309034
31
0.0
0
LINE
8
CUT
10
-81.678030
20
-21.309034
30
0.0
11
-82.225105
21
-19.089461
31
0.0
0
LINE
8
CUT
10
-81.307257
20
-22.682711
30
0.0
11
-83.744369
21
-23.398311
31
0.0
0
LINE
8
CUT
10
-83.744369
20
-23.398311
30
0.0
11
-83.100329
21
-25.591712
31
0.0
0
LINE
8
CUT
10
-83.100329
20
-25.591712
30
0.0
11
-80.663217
21
-24.876112
31
0.0
0
LINE
8
CUT
10
-80.663217
20
-24.876112
30
0.0
11
-81.307257
21
-22.682711
31
0.0
0
LINE
8
CUT
10
-80.232464
20
-26.232177
30
0.0
11
-82.635792
21
-27.054135
31
0.0
0
LINE
8
CUT
10
-82.635792
20
-27.054135
30
0.0
11
-81.896030
21
-29.217130
31
0.0
0
LINE
8
CUT
10
-81.896030
20
-29.217130
30
0.0
11
-79.492702
21
-28.395172
31
0.0
0
LINE
8
CUT
10
-79.492702
20
-28.395172
30
0.0
11
-80.232464
21
-26.232177
31
0.0
0
LINE
8
CUT
10
-79.002801
20
-29.731008
30
0.0
11
-81.367706
21
-30.657737
31
0.0
0
LINE
8
CUT
10
-81.367706
20
-30.657737
30
0.0
11
-80.533649
21
-32.786151
31
0.0
0
LINE
8
CUT
10
-80.533649
20
-32.786151
30
0.0
11
-78.168745
21
-31.859422
31
0.0
0
LINE
8
CUT
10
-78.168745
20
-31.859422
30
0.0
11
-79.002801
21
-29.731008
31
0.0
0
LINE
8
CUT
10
-77.620642
20
-33.172450
30
0.0
11
-79.942558
21
-34.202161
31
0.0
0
LINE
8
CUT
10
-79.942558
20
-34.202161
30
0.0
11
-79.015817
21
-36.291886
31
0.0
0
LINE
8
CUT
10
-79.015817
20
-36.291886
30
0.0
11
-76.693901
21
-35.262174
31
0.0
0
LINE
8
CUT
10
-76.693901
20
-35.262174
30
0.0
11
-77.620642
21
-33.172450
31
0.0
0
LINE
8
CUT
10
-76.088653
20
-36.549860
30
0.0
11
-78.363099
21
-37.680566
31
0.0
0
LINE
8
CUT
10
-78.363099
20
-37.680566
30
0.0
11
-77.345464
21
-39.727568
31
0.0
0
LINE
8
CUT
10
-77.345464
20
-39.727568
30
0.0
11
-75.071018
21
-38.596862
31
0.0
0
LINE
8
CUT
10
-75.071018
20
-38.596862
30
0.0
11
-76.088653
21
-36.549860
31
0.0
0
LINE
8
CUT
10
-74.409793
20
-39.856720
30
0.0
11
-76.632378
21
-41.086238
31
0.0
0
LINE
8
CUT
10
-76.632378
20
-41.086238
30
0.0
11
-75.525812
21
-43.086565
31
0.0
0
LINE
8
CUT
10
-75.525812
20
-43.086565
30
0.0
11
-73.303227
21
-41.857047
31
0.0
0
LINE
8
CUT
10
-73.303227
20
-41.857047
30
0.0
11
-74.409793
21
-39.856720
31
0.0
0
LINE
8
CUT
10
-72.587302
20
-43.086645
30
0.0
11
-74.753737
21
-44.412602
31
0.0
0
LINE
8
CUT
10
-74.753737
20
-44.412602
30
0.0
11
-73.560376
21
-46.362393
31
0.0
0
LINE
8
CUT
10
-73.560376
20
-46.362393
30
0.0
11
-71.393941
21
-45.036436
31
0.0
0
LINE
8
CUT
10
-71.393941
20
-45.036436
30
0.0
11
-72.587302
21
-43.086645
31
0.0
0
LINE
8
CUT
10
-70.624698
20
-46.233401
30
0.0
11
-72.730800
21
-47.653237
31
0.0
0
LINE
8
CUT
10
-72.730800
20
-47.653237
30
0.0
11
-71.452948
21
-49.548729
31
0.0
0
LINE
8
CUT
10
-71.452948
20
-49.548729
30
0.0
11
-69.346846
21
-48.128893
31
0.0
0
LINE
8
CUT
10
-69.346846
20
-48.128893
30
0.0
11
-70.624698
21
-46.233401
31
0.0
0
LINE
8
CUT
10
-68.525770
20
-49.290915
30
0.0
11
-70.567474
21
-50.801889
31
0.0
0
LINE
8
CUT
10
-70.567474
20
-50.801889
30
0.0
11
-69.207597
21
-52.639423
31
0.0
0
LINE
8
CUT
10
-69.207597
20
-52.639423
30
0.0
11
-67.165893
21
-51.128449
31
0.0
0
LINE
8
CUT
10
-67.165893
20
-51.128449
30
0.0
11
-68.525770
21
-49.290915
31
0.0
0
LINE
8
CUT
10
-66.294568
20
-52.253284
30
0.0
11
-68.267933
21
-53.852480
31
0.0
0
LINE
8
CUT
10
-68.267933
20
-53.852480
30
0.0
11
-66.828657
21
-55.628509
31
0.0
0
LINE
8
CUT
10
-66.828657
20
-55.628509
30
0.0
11
-64.855291
21
-54.029313
31
0.0
0
LINE
8
CUT
10
-64.855291
20
-54.029313
30
0.0
11
-66.294568
21
-52.253284
31
0.0
0
LINE
8
CUT
10
-63.935400
20
-55.114790
30
0.0
11
-65.836617
21
-56.799121
31
0.0
0
LINE
8
CUT
10
-65.836617
20
-56.799121
30
0.0
11
-64.320719
21
-58.510217
31
0.0
0
LINE
8
CUT
10
-64.320719
20
-58.510217
30
0.0
11
-62.419502
21
-56.825885
31
0.0
0
LINE
8
CUT
10
-62.419502
20
-56.825885
30
0.0
11
-63.935400
21
-55.114790
31
0.0
0
LINE
8
CUT
10
-61.452820
20
-57.869909
30
0.0
11
-63.278219
21
-59.636125
31
0.0
0
LINE
8
CUT
10
-63.278219
20
-59.636125
30
0.0
11
-61.688625
21
-61.278984
31
0.0
0
LINE
8
CUT
10
-61.688625
20
-61.278984
30
0.0
11
-59.863226
21
-59.512769
31
0.0
0
LINE
8
CUT
10
-59.863226
20
-59.512769
30
0.0
11
-61.452820
21
-57.869909
31
0.0
0
LINE
8
CUT
10
-58.851619
20
-60.513324
30
0.0
11
-60.597677
21
-62.358014
31
0.0
0
LINE
8
CUT
10
-60.597677
20
-62.358014
30
0.0
11
-58.937456
21
-63.929467
31
0.0
0
LINE
8
CUT
10
-58.937456
20
-63.929467
30
0.0
11
-57.191398
21
-62.084777
31
0.0
0
LINE
8
CUT
10
-57.191398
20
-62.084777
30
0.0
11
-58.851619
21
-60.513324
31
0.0
0
LINE
8
CUT
10
-56.136818
20
-63.039932
30
0.0
11
-57.800164
21
-64.959536
31
0.0
0
LINE
8
CUT
10
-57.800164
20
-64.959536
30
0.0
11
-56.072521
21
-66.456548
31
0.0
0
LINE
8
CUT
10
-56.072521
20
-66.456548
30
0.0
11
-54.409175
21
-64.536944
31
0.0
0
LINE
8
CUT
10
-54.409175
20
-64.536944
30
0.0
11
-56.136818
21
-63.039932
31
0.0
0
LINE
8
CUT
10
-53.313659
20
-65.444856
30
0.0
11
-54.891082
21
-67.435669
31
0.0
0
LINE
8
CUT
10
-54.891082
20
-67.435669
30
0.0
11
-53.099351
21
-68.855350
31
0.0
0
LINE
8
CUT
10
-53.099351
20
-68.855350
30
0.0
11
-51.521927
21
-66.864538
31
0.0
0
LINE
8
CUT
10
-51.521927
20
-66.864538
30
0.0
11
-53.313659
21
-65.444856
31
0.0
0
LINE
8
CUT
10
-50.387589
20
-67.723454
30
0.0
11
-51.876046
21
-69.781633
31
0.0
0
LINE
8
CUT
10
-51.876046
20
-69.781633
30
0.0
11
-50.023685
21
-71.121243
31
0.0
0
LINE
8
CUT
10
-50.023685
20
-71.121243
30
0.0
11
-48.535229
21
-69.063065
31
0.0
0
LINE
8
CUT
10
-48.535229
20
-69.063065
30
0.0
11
-50.387589
21
-67.723454
31
0.0
0
LINE
8
CUT
10
-47.364258
20
-69.871328
30
0.0
11
-48.760874
21
-71.992899
31
0.0
0
LINE
8
CUT
10
-48.760874
20
-71.992899
30
0.0
11
-46.851461
21
-73.249853
31
0.0
0
LINE
8
CUT
10
-46.851461
20
-73.249853
30
0.0
11
-45.454844
21
-71.128282
31
0.0
0
LINE
8
CUT
10
-45.454844
20
-71.128282
30
0.0
11
-47.364258
21
-69.871328
31
0.0
0
LINE
8
CUT
10
-44.249502
20
-71.884331
30
0.0
11
-45.551582
21
-74.065200
31
0.0
0
LINE
8
CUT
10
-45.551582
20
-74.065200
30
0.0
11
-43.588800
21
-75.237071
31
0.0
0
LINE
8
CUT
10
-43.588800
20
-75.237071
30
0.0
11
-42.286720
21
-73.056203
31
0.0
0
LINE
8
CUT
10
-42.286720
20
-73.056203
30
0.0
11
-44.249502
21
-71.884331
31
0.0
0
LINE
8
CUT
10
-41.049332
20
-73.758578
30
0.0
11
-42.254362
21
-75.994534
31
0.0
0
LINE
8
CUT
10
-42.254362
20
-75.994534
30
0.0
11
-40.242001
21
-77.079062
31
0.0
0
LINE
8
CUT
10
-40.242001
20
-77.079062
30
0.0
11
-39.036971
21
-74.843105
31
0.0
0
LINE
8
CUT
10
-39.036971
20
-74.843105
30
0.0
11
-41.049332
21
-73.758578
31
0.0
0
LINE
8
CUT
10
-37.769925
20
-75.490451
30
0.0
11
-38.875580
21
-77.777180
31
0.0
0
LINE
8
CUT
10
-38.875580
20
-77.777180
30
0.0
11
-36.817524
21
-78.772269
31
0.0
0
LINE
8
CUT
10
-36.817524
20
-78.772269
30
0.0
11
-35.711870
21
-76.485540
31
0.0
0
LINE
8
CUT
10
-35.711870
20
-76.485540
30
0.0
11
-37.769925
21
-75.490451
31
0.0
0
LINE
8
CUT
10
-34.417613
20
-77.076607
30
0.0
11
-35.421758
21
-79.409694
31
0.0
0
LINE
8
CUT
10
-35.421758
20
-79.409694
30
0.0
11
-33.321980
21
-80.313424
31
0.0
0
LINE
8
CUT
10
-33.321980
20
-80.313424
30
0.0
11
-32.317835
21
-77.980337
31
0.0
0
LINE
8
CUT
10
-32.317835
20
-77.980337
30
0.0
11
-34.417613
21
-77.076607
31
0.0
0
LINE
8
CUT
10
-30.998865
20
-78.513985
30
0.0
11
-31.899562
21
-80.888926
31
0.0
0
LINE
8
CUT
10
-31.899562
20
-80.888926
30
0.0
11
-29.762115
21
-81.699553
31
0.0
0
LINE
8
CUT
10
-29.762115
20
-81.699553
30
0.0
11
-28.861418
21
-79.324611
31
0.0
0
LINE
8
CUT
10
-28.861418
20
-79.324611
30
0.0
11
-30.998865
21
-78.513985
31
0.0
0
LINE
8
CUT
10
-27.520282
20
-79.799809
30
0.0
11
-28.315791
21
-82.212021
31
0.0
0
LINE
8
CUT
10
-28.315791
20
-82.212021
30
0.0
11
-26.144801
21
-82.927979
31
0.0
0
LINE
8
CUT
10
-26.144801
20
-82.927979
30
0.0
11
-25.349291
21
-80.515768
31
0.0
0
LINE
8
CUT
10
-25.349291
20
-80.515768
30
0.0
11
-27.520282
21
-79.799809
31
0.0
0
LINE
8
CUT
10
-23.988576
20
-80.931599
30
0.0
11
-24.677364
21
-83.376424
31
0.0
0
LINE
8
CUT
10
-24.677364
20
-83.376424
30
0.0
11
-22.477021
21
-83.996333
31
0.0
0
LINE
8
CUT
10
-22.477021
20
-83.996333
30
0.0
11
-21.788233
21
-81.551507
31
0.0
0
LINE
8
CUT
10
-21.788233
20
-81.551507
30
0.0
11
-23.988576
21
-80.931599
31
0.0
0
LINE
8
CUT
10
-20.410567
20
-81.907168
30
0.0
11
-20.991302
21
-84.379889
31
0.0
0
LINE
8
CUT
10
-20.991302
20
-84.379889
30
0.0
11
-18.765854
21
-84.902551
31
0.0
0
LINE
8
CUT
10
-18.765854
20
-84.902551
30
0.0
11
-18.185118
21
-82.429830
31
0.0
0
LINE
8
CUT
10
-18.185118
20
-82.429830
30
0.0
11
-20.410567
21
-81.907168
31
0.0
0
LINE
8
CUT
10
-16.793159
20
-82.724635
30
0.0
11
-17.264722
21
-85.220477
31
0.0
0
LINE
8
CUT
10
-17.264722
20
-85.220477
30
0.0
11
-15.018464
21
-85.644884
31
0.0
0
LINE
8
CUT
10
-15.018464
20
-85.644884
30
0.0
11
-14.546901
21
-83.149041
31
0.0
0
LINE
8
CUT
10
-14.546901
20
-83.149041
30
0.0
11
-16.793159
21
-82.724635
31
0.0
0
LINE
8
CUT
10
-13.143336
20
-83.382421
30
0.0
11
-13.504816
21
-85.896568
31
0.0
0
LINE
8
CUT
10
-13.504816
20
-85.896568
30
0.0
11
-11.242084
21
-86.221899
31
0.0
0
LINE
8
CUT
10
-11.242084
20
-86.221899
30
0.0
11
-10.880604
21
-83.707753
31
0.0
0
LINE
8
CUT
10
-10.880604
20
-83.707753
30
0.0
11
-13.143336
21
-83.382421
31
0.0
0
LINE
8
CUT
10
-9.468143
20
-83.879257
30
0.0
11
-9.718842
21
-86.406854
31
0.0
0
LINE
8
CUT
10
-9.718842
20
-86.406854
30
0.0
11
-7.444004
21
-86.632483
31
0.0
0
LINE
8
CUT
10
-7.444004
20
-86.632483
30
0.0
11
-7.193305
21
-84.104886
31
0.0
0
LINE
8
CUT
10
-7.193305
20
-84.104886
30
0.0
11
-9.468143
21
-83.879257
31
0.0
0
LINE
8
CUT
10
-5.774674
20
-84.214183
30
0.0
11
-5.914108
21
-86.750353
31
0.0
0
LINE
8
CUT
10
-5.914108
20
-86.750353
30
0.0
11
-3.631555
21
-86.875843
31
0.0
0
LINE
8
CUT
10
-3.631555
20
-86.875843
30
0.0
11
-3.492121
21
-84.339673
31
0.0
0
LINE
8
CUT
10
-3.492121
20
-84.339673
30
0.0
11
-5.774674
21
-84.214183
31
0.0
0
LINE
8
CUT
10
-2.070058
20
-84.386553
30
0.0
11
-2.097958
21
-86.926400
31
0.0
0
LINE
8
CUT
10
-2.097958
20
-86.926400
30
0.0
11
0.187904
21
-86.951510
31
0.0
0
LINE
8
CUT
10
0.187904
20
-86.951510
30
0.0
11
0.215804
21
-84.411663
31
0.0
0
LINE
8
CUT
10
0.215804
20
-84.411663
30
0.0
11
-2.070058
21
-84.386553
31
0.0
0
LINE
8
CUT
10
1.638554
20
-84.396034
30
0.0
11
1.722241
21
-86.934655
31
0.0
0
LINE
8
CUT
10
1.722241
20
-86.934655
30
0.0
11
4.007000
21
-86.859336
31
0.0
0
LINE
8
CUT
10
4.007000
20
-86.859336
30
0.0
11
3.923313
21
-84.320715
31
0.0
0
LINE
8
CUT
10
3.923313
20
-84.320715
30
0.0
11
1.638554
21
-84.396034
31
0.0
0
LINE
8
CUT
10
5.344002
20
-84.242608
30
0.0
11
5.539116
21
-86.775103
31
0.0
0
LINE
8
CUT
10
5.539116
20
-86.775103
30
0.0
11
7.818362
21
-86.599501
31
0.0
0
LINE
8
CUT
10
7.818362
20
-86.599501
30
0.0
11
7.623248
21
-84.067006
31
0.0
0
LINE
8
CUT
10
7.623248
20
-84.067006
30
0.0
11
5.344002
21
-84.242608
31
0.0
0
LINE
8
CUT
10
9.039136
20
-83.926572
30
0.0
11
9.345299
21
-86.448052
31
0.0
0
LINE
8
CUT
10
9.345299
20
-86.448052
30
0.0
11
11.614631
21
-86.172505
31
0.0
0
LINE
8
CUT
10
11.614631
20
-86.172505
30
0.0
11
11.308468
21
-83.651025
31
0.0
0
LINE
8
CUT
10
11.308468
20
-83.651025
30
0.0
11
9.039136
21
-83.926572
31
0.0
0
LINE
8
CUT
10
12.716821
20
-83.448534
30
0.0
11
13.133443
21
-85.954133
31
0.0
0
LINE
8
CUT
10
13.133443
20
-85.954133
30
0.0
11
15.388482
21
-85.579174
31
0.0
0
LINE
8
CUT
10
15.388482
20
-85.579174
30
0.0
11
14.971860
21
-83.073575
31
0.0
0
LINE
8
CUT
10
14.971860
20
-83.073575
30
0.0
11
12.716821
21
-83.448534
31
0.0
0
LINE
8
CUT
10
16.369960
20
-82.809419
30
0.0
11
16.896236
21
-85.294300
31
0.0
0
LINE
8
CUT
10
16.896236
20
-85.294300
30
0.0
11
19.132629
21
-84.820651
31
0.0
0
LINE
8
CUT
10
19.132629
20
-84.820651
30
0.0
11
18.606353
21
-82.335770
31
0.0
0
LINE
8
CUT
10
18.606353
20
-82.335770
30
0.0
11
16.369960
21
-82.809419
31
0.0
0
LINE
8
CUT
10
19.991500
20
-82.010459
30
0.0
11
20.626415
21
-84.469825
31
0.0
0
LINE
8
CUT
10
20.626415
20
-84.469825
30
0.0
11
22.839844
21
-83.898402
31
0.0
0
LINE
8
CUT
10
22.839844
20
-83.898402
30
0.0
11
22.204930
21
-81.439036
31
0.0
0
LINE
8
CUT
10
22.204930
20
-81.439036
30
0.0
11
19.991500
21
-82.010459
31
0.0
0
LINE
8
CUT
10
23.574451
20
-81.053197
30
0.0
11
24.316779
21
-83.482301
31
0.0
0
LINE
8
CUT
10
24.316779
20
-83.482301
30
0.0
11
26.502973
21
-82.814206
31
0.0
0
LINE
8
CUT
10
26.502973
20
-82.814206
30
0.0
11
25.760645
21
-80.385102
31
0.0
0
LINE
8
CUT
10
25.760645
20
-80.385102
30
0.0
11
23.574451
21
-81.053197
31
0.0
0
LINE
8
CUT
10
27.111897
20
-79.939480
30
0.0
11
27.960205
21
-82.333634
31
0.0
0
LINE
8
CUT
10
27.960205
20
-82.333634
30
0.0
11
30.114944
21
-81.570157
31
0.0
0
LINE
8
CUT
10
30.114944
20
-81.570157
30
0.0
11
29.266636
21
-79.176003
31
0.0
0
LINE
8
CUT
10
29.266636
20
-79.176003
30
0.0
11
27.111897
21
-79.939480
31
0.0
0
LINE
8
CUT
10
30.597010
20
-78.671459
30
0.0
11
31.549660
21
-81.026041
31
0.0
0
LINE
8
CUT
10
31.549660
20
-81.026041
30
0.0
11
33.668784
21
-80.168655
31
0.0
0
LINE
8
CUT
10
33.668784
20
-80.168655
30
0.0
11
32.716134
21
-77.814073
31
0.0
0
LINE
8
CUT
10
32.716134
20
-77.814073
30
0.0
11
30.597010
21
-78.671459
31
0.0
0
LINE
8
CUT
10
34.023062
20
-77.251580
30
0.0
11
35.078217
21
-79.562045
31
0.0
0
LINE
8
CUT
10
35.078217
20
-79.562045
30
0.0
11
37.157635
21
-78.612407
31
0.0
0
LINE
8
CUT
10
37.157635
20
-78.612407
30
0.0
11
36.102481
21
-76.301942
31
0.0
0
LINE
8
CUT
10
36.102481
20
-76.301942
30
0.0
11
34.023062
21
-77.251580
31
0.0
0
LINE
8
CUT
10
37.383441
20
-75.682586
30
0.0
11
38.539062
21
-77.944474
31
0.0
0
LINE
8
CUT
10
38.539062
20
-77.944474
30
0.0
11
40.574762
21
-76.904415
31
0.0
0
LINE
8
CUT
10
40.574762
20
-76.904415
30
0.0
11
39.419141
21
-74.642526
31
0.0
0
LINE
8
CUT
10
39.419141
20
-74.642526
30
0.0
11
37.383441
21
-75.682586
31
0.0
0
LINE
8
CUT
10
40.671660
20
-73.967503
30
0.0
11
41.925517
21
-76.176449
31
0.0
0
LINE
8
CUT
10
41.925517
20
-76.176449
30
0.0
11
43.913569
21
-75.047977
31
0.0
0
LINE
8
CUT
10
43.913569
20
-75.047977
30
0.0
11
42.659711
21
-72.839031
31
0.0
0
LINE
8
CUT
10
42.659711
20
-72.839031
30
0.0
11
40.671660
21
-73.967503
31
0.0
0
LINE
8
CUT
10
43.881371
20
-72.109643
30
0.0
11
45.231045
21
-74.261383
31
0.0
0
LINE
8
CUT
10
45.231045
20
-74.261383
30
0.0
11
47.167610
21
-73.046676
31
0.0
0
LINE
8
CUT
10
47.167610
20
-73.046676
30
0.0
11
45.817937
21
-70.894937
31
0.0
0
LINE
8
CUT
10
45.817937
20
-70.894937
30
0.0
11
43.881371
21
-72.109643
31
0.0
0
LINE
8
CUT
10
47.006380
20
-70.112593
30
0.0
11
48.449264
21
-72.202972
31
0.0
0
LINE
8
CUT
10
48.449264
20
-72.202972
30
0.0
11
50.330606
21
-70.904376
31
0.0
0
LINE
8
CUT
10
50.330606
20
-70.904376
30
0.0
11
48.887721
21
-68.813997
31
0.0
0
LINE
8
CUT
10
48.887721
20
-68.813997
30
0.0
11
47.006380
21
-70.112593
31
0.0
0
LINE
8
CUT
10
50.040654
20
-67.980206
30
0.0
11
51.573964
21
-70.005190
31
0.0
0
LINE
8
CUT
10
51.573964
20
-70.005190
30
0.0
11
53.396449
21
-68.625211
31
0.0
0
LINE
8
CUT
10
53.396449
20
-68.625211
30
0.0
11
51.863139
21
-66.600227
31
0.0
0
LINE
8
CUT
10
51.863139
20
-66.600227
30
0.0
11
50.040654
21
-67.980206
31
0.0
0
LINE
8
CUT
10
52.978335
20
-65.716599
30
0.0
11
54.599111
21
-67.672279
31
0.0
0
LINE
8
CUT
10
54.599111
20
-67.672279
30
0.0
11
56.359224
21
-66.213581
31
0.0
0
LINE
8
CUT
10
56.359224
20
-66.213581
30
0.0
11
54.738447
21
-64.257901
31
0.0
0
LINE
8
CUT
10
54.738447
20
-64.257901
30
0.0
11
52.978335
21
-65.716599
31
0.0
0
LINE
8
CUT
10
55.813755
20
-63.326142
30
0.0
11
57.518868
21
-65.208743
31
0.0
0
LINE
8
CUT
10
57.518868
20
-65.208743
30
0.0
11
59.213209
21
-63.674141
31
0.0
0
LINE
8
CUT
10
59.213209
20
-63.674141
30
0.0
11
57.508096
21
-61.791539
31
0.0
0
LINE
8
CUT
10
57.508096
20
-61.791539
30
0.0
11
55.813755
21
-63.326142
31
0.0
0
LINE
8
CUT
10
58.541438
20
-60.813448
30
0.0
11
60.327598
21
-62.619336
31
0.0
0
LINE
8
CUT
10
60.327598
20
-62.619336
30
0.0
11
61.952898
21
-61.011792
31
0.0
0
LINE
8
CUT
10
61.952898
20
-61.011792
30
0.0
11
60.166738
21
-59.205904
31
0.0
0
LINE
8
CUT
10
60.166738
20
-59.205904
30
0.0
11
58.541438
21
-60.813448
31
0.0
0
LINE
8
CUT
10
61.156121
20
-58.183367
30
0.0
11
63.019880
21
-59.909057
31
0.0
0
LINE
8
CUT
10
63.019880
20
-59.909057
30
0.0
11
64.573000
21
-58.231675
31
0.0
0
LINE
8
CUT
10
64.573000
20
-58.231675
30
0.0
11
62.709242
21
-56.505985
31
0.0
0
LINE
8
CUT
10
62.709242
20
-56.505985
30
0.0
11
61.156121
21
-58.183367
31
0.0
0
LINE
8
CUT
10
63.652757
20
-55.440978
30
0.0
11
65.590516
21
-57.083138
31
0.0
0
LINE
8
CUT
10
65.590516
20
-57.083138
30
0.0
11
67.068460
21
-55.339155
31
0.0
0
LINE
8
CUT
10
67.068460
20
-55.339155
30
0.0
11
65.130701
21
-53.696994
31
0.0
0
LINE
8
CUT
10
65.130701
20
-53.696994
30
0.0
11
63.652757
21
-55.440978
31
0.0
0
LINE
8
CUT
10
66.026525
20
-52.591572
30
0.0
11
68.034544
21
-54.147033
31
0.0
0
LINE
8
CUT
10
68.034544
20
-54.147033
30
0.0
11
69.434459
21
-52.339815
31
0.0
0
LINE
8
CUT
10
69.434459
20
-52.339815
30
0.0
11
67.426440
21
-50.784354
31
0.0
0
LINE
8
CUT
10
67.426440
20
-50.784354
30
0.0
11
66.026525
21
-52.591572
31
0.0
0
LINE
8
CUT
10
68.272845
20
-49.640650
30
0.0
11
70.347248
21
-51.106409
31
0.0
0
LINE
8
CUT
10
70.347248
20
-51.106409
30
0.0
11
71.666431
21
-49.239446
31
0.0
0
LINE
8
CUT
10
71.666431
20
-49.239446
30
0.0
11
69.592028
21
-47.773687
31
0.0
0
LINE
8
CUT
10
69.592028
20
-47.773687
30
0.0
11
68.272845
21
-49.640650
31
0.0
0
LINE
8
CUT
10
70.387379
20
-46.593908
30
0.0
11
72.524163
21
-47.967136
31
0.0
0
LINE
8
CUT
10
72.524163
20
-47.967136
30
0.0
11
73.760068
21
-46.044031
31
0.0
0
LINE
8
CUT
10
73.760068
20
-46.044031
30
0.0
11
71.623284
21
-44.670803
31
0.0
0
LINE
8
CUT
10
71.623284
20
-44.670803
30
0.0
11
70.387379
21
-46.593908
31
0.0
0
LINE
8
CUT
10
72.366047
20
-43.457228
30
0.0
11
74.561087
21
-44.735274
31
0.0
0
LINE
8
CUT
10
74.561087
20
-44.735274
30
0.0
11
75.711328
21
-42.759738
31
0.0
0
LINE
8
CUT
10
75.711328
20
-42.759738
30
0.0
11
73.516288
21
-41.481693
31
0.0
0
LINE
8
CUT
10
73.516288
20
-41.481693
30
0.0
11
72.366047
21
-43.457228
31
0.0
0
LINE
8
CUT
10
74.205029
20
-40.236664
30
0.0
11
76.454087
21
-41.417061
31
0.0
0
LINE
8
CUT
10
76.454087
20
-41.417061
30
0.0
11
77.516444
21
-39.392908
31
0.0
0
LINE
8
CUT
10
77.516444
20
-39.392908
30
0.0
11
75.267386
21
-38.212511
31
0.0
0
LINE
8
CUT
10
75.267386
20
-38.212511
30
0.0
11
74.205029
21
-40.236664
31
0.0
0
LINE
8
CUT
10
75.900775
20
-36.938432
30
0.0
11
78.199511
21
-38.018901
31
0.0
0
LINE
8
CUT
10
78.199511
20
-38.018901
30
0.0
11
79.171933
21
-35.950039
31
0.0
0
LINE
8
CUT
10
79.171933
20
-35.950039
30
0.0
11
76.873198
21
-34.869570
31
0.0
0
LINE
8
CUT
10
76.873198
20
-34.869570
30
0.0
11
75.900775
21
-36.938432
31
0.0
0
LINE
8
CUT
10
77.450013
20
-33.568899
30
0.0
11
79.793989
21
-34.547355
31
0.0
0
LINE
8
CUT
10
79.793989
20
-34.547355
30
0.0
11
80.674599
21
-32.437777
31
0.0
0
LINE
8
CUT
10
80.674599
20
-32.437777
30
0.0
11
78.330624
21
-31.459320
31
0.0
0
LINE
8
CUT
10
78.330624
20
-31.459320
30
0.0
11
77.450013
21
-33.568899
31
0.0
0
LINE
8
CUT
10
78.849751
20
-30.134569
30
0.0
11
81.234442
21
-31.009123
31
0.0
0
LINE
8
CUT
10
81.234442
20
-31.009123
30
0.0
11
82.021542
21
-28.862901
31
0.0
0
LINE
8
CUT
10
82.021542
20
-28.862901
30
0.0
11
79.636850
21
-27.988346
31
0.0
0
LINE
8
CUT
10
79.636850
20
-27.988346
30
0.0
11
78.849751
21
-30.134569
31
0.0
0
LINE
8
CUT
10
80.097288
20
-26.642071
30
0.0
11
82.518092
21
-27.411036
31
0.0
0
LINE
8
CUT
10
82.518092
20
-27.411036
30
0.0
11
83.210160
21
-25.232312
31
0.0
0
LINE
8
CUT
10
83.210160
20
-25.232312
30
0.0
11
80.789356
21
-24.463347
31
0.0
0
LINE
8
CUT
10
80.789356
20
-24.463347
30
0.0
11
80.097288
21
-26.642071
31
0.0
0
LINE
8
CUT
10
81.190215
20
-23.098146
30
0.0
11
83.642459
21
-23.760037
31
0.0
0
LINE
8
CUT
10
83.642459
20
-23.760037
30
0.0
11
84.238161
21
-21.553018
31
0.0
0
LINE
8
CUT
10
84.238161
20
-21.553018
30
0.0
11
81.785917
21
-20.891127
31
0.0
0
LINE
8
CUT
10
81.785917
20
-20.891127
30
0.0
11
81.190215
21
-23.098146
31
0.0
0
LINE
8
CUT
10
82.126424
20
-19.509637
30
0.0
11
84.605374
21
-20.063176
31
0.0
0
LINE
8
CUT
10
84.605374
20
-20.063176
30
0.0
11
85.103559
21
-17.832121
31
0.0
0
LINE
8
CUT
10
85.103559
20
-17.832121
30
0.0
11
82.624609
21
-17.278581
31
0.0
0
LINE
8
CUT
10
82.624609
20
-17.278581
30
0.0
11
82.126424
21
-19.509637
31
0.0
0
LINE
8
CUT
10
82.904107
20
-15.883468
30
0.0
11
85.404978
21
-16.327587
31
0.0
0
LINE
8
CUT
10
85.404978
20
-16.327587
30
0.0
11
85.804685
21
-14.076803
31
0.0
0
LINE
8
CUT
10
85.804685
20
-14.076803
30
0.0
11
83.303814
21
-13.632684
31
0.0
0
LINE
8
CUT
10
83.303814
20
-13.632684
30
0.0
11
82.904107
21
-15.883468
31
0.0
0
LINE
8
CUT
10
83.521762
20
-12.226640
30
0.0
11
86.039727
21
-12.560481
31
0.0
0
LINE
8
CUT
10
86.039727
20
-12.560481
30
0.0
11
86.340185
21
-10.294312
31
0.0
0
LINE
8
CUT
10
86.340185
20
-10.294312
30
0.0
11
83.822219
21
-9.960471
31
0.0
0
LINE
8
CUT
10
83.822219
20
-9.960471
30
0.0
11
83.521762
21
-12.226640
31
0.0
0
LINE
8
CUT
10
83.978198
20
-8.546211
30
0.0
11
86.508397
21
-8.769131
31
0.0
0
LINE
8
CUT
10
86.508397
20
-8.769131
30
0.0
11
86.709024
21
-6.491952
31
0.0
0
LINE
8
CUT
10
86.709024
20
-6.491952
30
0.0
11
84.178826
21
-6.269032
31
0.0
0
LINE
8
CUT
10
84.178826
20
-6.269032
30
0.0
11
83.978198
21
-8.546211
31
0.0
0
LINE
8
CUT
10
84.272533
20
-4.849286
30
0.0
11
86.810082
21
-4.960853
31
0.0
0
LINE
8
CUT
10
86.810082
20
-4.960853
30
0.0
11
86.910493
21
-2.677060
31
0.0
0
LINE
8
CUT
10
86.910493
20
-2.677060
30
0.0
11
84.372944
21
-2.565492
31
0.0
0
LINE
8
CUT
10
84.372944
20
-2.565492
30
0.0
11
84.272533
21
-4.849286
31
0.0
0
CIRCLE
8
CUT
10
-42.459065
20
-50.600744
30
0.0
40
1.473200
0
CIRCLE
8
CUT
10
-48.397256
20
-30.241962
30
0.0
40
1.473200
0
CIRCLE
8
CUT
10
-49.561360
20
-12.357035
30
0.0
40
1.473200
0
CIRCLE
8
CUT
10
-47.966290
20
3.354130
30
0.0
40
1.473200
0
CIRCLE
8
CUT
10
-25.142505
20
10.158231
30
0.0
40
1.473200
0
CIRCLE
8
CUT
10
-18.478426
20
15.505240
30
0.0
40
1.473200
0
CIRCLE
8
CUT
10
-15.957066
20
25.536644
30
0.0
40
1.473200
0
CIRCLE
8
CUT
10
-9.458623
20
37.936466
30
0.0
40
1.473200
0
CIRCLE
8
CUT
10
2.936262
20
41.990496
30
0.0
40
1.473200
0
CIRCLE
8
CUT
10
13.524289
20
33.473790
30
0.0
40
1.473200
0
CIRCLE
8
CUT
10
21.281060
20
25.361780
30
0.0
40
1.473200
0
CIRCLE
8
CUT
10
38.236984
20
23.893119
30
0.0
40
1.473200
0
CIRCLE
8
CUT
10
52.467583
20
13.081638
30
0.0
40
1.473200
0
CIRCLE
8
CUT
10
71.869468
20
-5.025603
30
0.0
40
1.473200
0
CIRCLE
8
CUT
10
72.353120
20
-29.232558
30
0.0
40
1.473200
0
CIRCLE
8
CUT
10
62.073000
20
-52.085431
30
0.0
40
1.473200
0
CIRCLE
8
CUT
10
39.765226
20
-63.637665
30
0.0
40
1.473200
0
CIRCLE
8
CUT
10
14.530843
20
-58.280030
30
0.0
40
1.473200
0
CIRCLE
8
CUT
10
-4.398800
20
-62.905777
30
0.0
40
1.473200
0
CIRCLE
8
CUT
10
-25.866500
20
-64.021835
30
0.0
40
1.473200
0
ENDSEC
0
EOF
